# File created by Blade
# Date/Time:  Thu Sep 25 18:39:44 2014
# Frame Rate: 120.000 fps
#------------------------------------------------------
:FULLY-SPECIFIED
:DEGREES
571
root -1.040936 33.172947 -2.313277 8.535340 8.045649 -0.608300
Spine -13.318255 5.538530 -0.826649
Head 3.832537 -12.289511 6.978662
LeftShoulder -11.195600 -7.679914 47.345928
LeftArm 98.720838 -72.185773 -82.730222
LeftForeArm -35.057546 -0.000000 111.218391
LeftHand -24.715648 -0.000000 2.070557
LeftHandThumb1 -26.253704 0.000000 33.147579
RightShoulder -122.882305 35.243029 -204.560959
RightArm -18.213174 5.585643 55.718909
RightForeArm 38.804316 0.000000 158.502043
RightHand 6.641968 -0.000000 29.111059
RightHandThumb1 -24.326973 -0.000000 -32.862282
LeftUpLeg -2.181764 4.158295 2.271999
LeftLeg -1.522894 -0.000000 0.000000
LeftFoot -7.117147 -0.609551 -10.989832
LeftToeBase 10.016962 -0.000000 -0.000000
RightUpLeg -2.133621 -9.381067 0.900028
RightLeg 1.026170 -0.000000 -0.000000
RightFoot -7.239943 -3.599157 1.021476
RightToeBase -0.620156 -0.000000 0.000000
572
root -1.045587 33.172986 -2.313643 8.533903 8.062867 -0.610579
Spine -13.311802 5.538619 -0.842426
Head 3.847269 -12.359670 6.959851
LeftShoulder -11.213812 -7.687174 47.341560
LeftArm 98.632272 -72.182326 -82.650273
LeftForeArm -35.052384 -0.000000 111.240425
LeftHand -24.696687 0.000000 2.116661
LeftHandThumb1 -26.253704 0.000000 33.147579
RightShoulder -122.875568 35.228089 -204.561397
RightArm -18.209625 5.549262 55.740820
RightForeArm 38.783795 -0.000000 158.510510
RightHand 6.635168 -0.000000 29.083059
RightHandThumb1 -24.326973 -0.000000 -32.862282
LeftUpLeg -2.186901 4.164259 2.282524
LeftLeg -1.521636 -0.000000 0.000000
LeftFoot -7.122929 -0.623509 -10.989572
LeftToeBase 10.064300 -0.000000 -0.000000
RightUpLeg -2.126725 -9.386550 0.911508
RightLeg 1.014911 -0.000000 -0.000000
RightFoot -7.238372 -3.598985 1.014926
RightToeBase -0.629565 -0.000000 0.000000
573
root -1.050306 33.173264 -2.314060 8.525654 8.079086 -0.613914
Spine -13.293722 5.518568 -0.846288
Head 3.863188 -12.427475 6.926528
LeftShoulder -11.265495 -7.655632 47.350825
LeftArm 98.629580 -72.164686 -82.694767
LeftForeArm -35.086095 -0.000000 111.294172
LeftHand -24.727431 0.000000 2.149614
LeftHandThumb1 -26.253704 0.000000 33.147579
RightShoulder -122.913724 35.156545 -204.602304
RightArm -18.226450 5.461677 55.822501
RightForeArm 38.757637 -0.000000 158.499370
RightHand 6.642187 -0.000000 29.107068
RightHandThumb1 -24.326973 -0.000000 -32.862282
LeftUpLeg -2.182402 4.154899 2.296180
LeftLeg -1.521122 -0.000000 0.000000
LeftFoot -7.105029 -0.636340 -10.985197
LeftToeBase 10.012182 -0.000000 -0.000000
RightUpLeg -2.118377 -9.411805 0.922588
RightLeg 1.009892 -0.000000 -0.000000
RightFoot -7.223727 -3.583603 1.008843
RightToeBase -0.629547 -0.000000 0.000000
574
root -1.054325 33.173068 -2.313576 8.520565 8.092300 -0.613035
Spine -13.281144 5.504307 -0.853165
Head 3.882189 -12.495881 6.881348
LeftShoulder -11.296351 -7.701664 47.366772
LeftArm 98.359282 -72.172974 -82.475277
LeftForeArm -35.068977 -0.000000 111.336197
LeftHand -24.739506 -0.000000 2.196333
LeftHandThumb1 -26.253704 0.000000 33.147579
RightShoulder -122.934327 35.118332 -204.634709
RightArm -18.224645 5.407549 55.857193
RightForeArm 38.764793 0.000000 158.498837
RightHand 6.640623 0.000000 29.090298
RightHandThumb1 -24.326973 -0.000000 -32.862282
LeftUpLeg -2.180852 4.158206 2.300146
LeftLeg -1.521794 -0.000000 0.000000
LeftFoot -7.100295 -0.641133 -11.017099
LeftToeBase 9.971604 -0.000000 -0.000000
RightUpLeg -2.106568 -9.406055 0.928231
RightLeg 1.001633 -0.000000 -0.000000
RightFoot -7.227654 -3.590854 0.997647
RightToeBase -0.620259 -0.000000 0.000000
575
root -1.057455 33.173570 -2.312645 8.513752 8.106081 -0.612169
Spine -13.272908 5.504802 -0.867196
Head 3.905731 -12.599466 6.851561
LeftShoulder -11.333275 -7.549386 47.310388
LeftArm 98.719946 -72.160114 -82.788999
LeftForeArm -34.889063 -0.000000 111.347126
LeftHand -24.764819 -0.000000 2.371362
LeftHandThumb1 -26.253704 0.000000 33.147579
RightShoulder -122.963491 35.056305 -204.677414
RightArm -18.255731 5.317368 55.933804
RightForeArm 38.794335 0.000000 158.485860
RightHand 6.659462 -0.000000 29.085943
RightHandThumb1 -24.326973 -0.000000 -32.862282
LeftUpLeg -2.176510 4.149687 2.306657
LeftLeg -1.517029 -0.000000 0.000000
LeftFoot -7.103452 -0.632824 -10.973570
LeftToeBase 10.003890 -0.000000 -0.000000
RightUpLeg -2.093757 -9.412855 0.933332
RightLeg 0.993733 -0.000000 -0.000000
RightFoot -7.219315 -3.605453 1.012371
RightToeBase -0.650771 -0.000000 0.000000
576
root -1.061599 33.173396 -2.312123 8.508363 8.124969 -0.616395
Spine -13.261451 5.505452 -0.866908
Head 3.925810 -12.713086 6.784898
LeftShoulder -11.367115 -7.700316 47.361470
LeftArm 98.080808 -72.147578 -82.249873
LeftForeArm -34.850422 -0.000000 111.406371
LeftHand -24.755131 -0.000000 2.440328
LeftHandThumb1 -26.253704 0.000000 33.147579
RightShoulder -122.973902 35.027113 -204.703968
RightArm -18.241902 5.261139 55.991510
RightForeArm 38.793837 0.000000 158.486682
RightHand 6.635745 0.000000 29.038968
RightHandThumb1 -24.326973 -0.000000 -32.862282
LeftUpLeg -2.171860 4.137710 2.319522
LeftLeg -1.522789 -0.000000 0.000000
LeftFoot -7.097680 -0.640961 -10.989136
LeftToeBase 10.031895 -0.000000 -0.000000
RightUpLeg -2.083279 -9.421316 0.946885
RightLeg 0.983741 -0.000000 -0.000000
RightFoot -7.212886 -3.617589 0.985435
RightToeBase -0.664978 -0.000000 0.000000
577
root -1.065122 33.173305 -2.310806 8.502732 8.142078 -0.618337
Spine -13.257518 5.502279 -0.872421
Head 3.960513 -12.862198 6.730741
LeftShoulder -11.395922 -7.745433 47.371348
LeftArm 97.804625 -72.142937 -82.015537
LeftForeArm -34.843094 -0.000000 111.439379
LeftHand -24.780986 -0.000000 2.482570
LeftHandThumb1 -26.253704 0.000000 33.147579
RightShoulder -122.974594 35.012089 -204.716321
RightArm -18.238584 5.222781 56.043545
RightForeArm 38.804714 0.000000 158.489367
RightHand 6.673847 -0.000000 29.005818
RightHandThumb1 -24.326973 -0.000000 -32.862282
LeftUpLeg -2.167754 4.143480 2.328176
LeftLeg -1.520920 -0.000000 0.000000
LeftFoot -7.100141 -0.648462 -10.982521
LeftToeBase 10.014656 -0.000000 -0.000000
RightUpLeg -2.068960 -9.436897 0.956520
RightLeg 0.969826 -0.000000 -0.000000
RightFoot -7.215314 -3.621796 0.986093
RightToeBase -0.615308 -0.000000 0.000000
578
root -1.069103 33.173002 -2.310079 8.494425 8.153553 -0.622522
Spine -13.243504 5.511826 -0.883220
Head 3.984866 -13.041617 6.684828
LeftShoulder -11.425886 -7.771478 47.372046
LeftArm 97.704125 -72.135455 -81.936212
LeftForeArm -34.902219 -0.000000 111.459010
LeftHand -24.806284 -0.000000 2.444716
LeftHandThumb1 -26.253704 0.000000 33.147579
RightShoulder -123.003237 34.981449 -204.741623
RightArm -18.218715 5.149744 56.078009
RightForeArm 38.807610 -0.000000 158.479218
RightHand 6.703581 -0.000000 28.955460
RightHandThumb1 -24.326973 -0.000000 -32.862282
LeftUpLeg -2.164154 4.121089 2.342235
LeftLeg -1.513066 -0.000000 0.000000
LeftFoot -7.105056 -0.644646 -10.989631
LeftToeBase 9.991708 -0.000000 -0.000000
RightUpLeg -2.056828 -9.437272 0.967896
RightLeg 0.965092 -0.000000 -0.000000
RightFoot -7.207516 -3.626846 0.971371
RightToeBase -0.618593 -0.000000 0.000000
579
root -1.071870 33.172949 -2.307966 8.479375 8.173723 -0.623597
Spine -13.223247 5.524708 -0.880671
Head 4.018226 -13.228503 6.588693
LeftShoulder -11.442130 -7.815567 47.366634
LeftArm 97.494914 -72.144011 -81.771740
LeftForeArm -34.925889 -0.000000 111.496846
LeftHand -24.804343 0.000000 2.485020
LeftHandThumb1 -26.253704 0.000000 33.147579
RightShoulder -122.998452 34.948572 -204.761951
RightArm -18.203709 5.099888 56.147107
RightForeArm 38.800013 -0.000000 158.461624
RightHand 6.745193 -0.000000 28.950778
RightHandThumb1 -24.326973 -0.000000 -32.862282
LeftUpLeg -2.146020 4.096059 2.352093
LeftLeg -1.520161 -0.000000 0.000000
LeftFoot -7.105837 -0.637384 -10.980712
LeftToeBase 9.987084 -0.000000 -0.000000
RightUpLeg -2.032252 -9.456473 0.974390
RightLeg 0.954025 -0.000000 -0.000000
RightFoot -7.210572 -3.625470 0.983729
RightToeBase -0.597955 -0.000000 0.000000
580
root -1.075326 33.172756 -2.307030 8.480251 8.183789 -0.628348
Spine -13.222490 5.551215 -0.879740
Head 4.054425 -13.424781 6.506934
LeftShoulder -11.482072 -7.821407 47.343277
LeftArm 97.432931 -72.114475 -81.734181
LeftForeArm -34.935414 -0.000000 111.531133
LeftHand -24.824643 0.000000 2.433087
LeftHandThumb1 -26.253704 0.000000 33.147579
RightShoulder -122.975810 34.953664 -204.753551
RightArm -18.156667 5.101811 56.185282
RightForeArm 38.812507 -0.000000 158.451999
RightHand 6.775183 0.000000 28.904941
RightHandThumb1 -24.326973 -0.000000 -32.862282
LeftUpLeg -2.146120 4.089218 2.363705
LeftLeg -1.524020 -0.000000 0.000000
LeftFoot -7.103528 -0.631732 -10.963233
LeftToeBase 9.966970 -0.000000 -0.000000
RightUpLeg -2.017761 -9.435730 0.984447
RightLeg 0.926438 -0.000000 -0.000000
RightFoot -7.202671 -3.643832 1.020841
RightToeBase -0.592869 -0.000000 0.000000
581
root -1.079436 33.173527 -2.304633 8.465257 8.197698 -0.648809
Spine -13.216279 5.564173 -0.868898
Head 4.099668 -13.615341 6.472573
LeftShoulder -11.559628 -7.804481 47.313124
LeftArm 97.394888 -72.014021 -81.677475
LeftForeArm -34.910608 -0.000000 111.529929
LeftHand -24.749057 -0.000000 2.448423
LeftHandThumb1 -26.253704 0.000000 33.147579
RightShoulder -123.007111 34.929047 -204.757608
RightArm -18.107452 5.052034 56.251143
RightForeArm 38.803038 -0.000000 158.438608
RightHand 6.777604 -0.000000 28.860096
RightHandThumb1 -24.326973 -0.000000 -32.862282
LeftUpLeg -2.129944 4.069345 2.394567
LeftLeg -1.530768 -0.000000 0.000000
LeftFoot -7.109515 -0.622765 -10.987350
LeftToeBase 10.031753 -0.000000 -0.000000
RightUpLeg -2.028661 -9.535992 1.013922
RightLeg 0.980539 -0.000000 -0.000000
RightFoot -7.208113 -3.555147 0.988256
RightToeBase -0.638273 -0.000000 0.000000
582
root -1.081761 33.173794 -2.303013 8.457414 8.210437 -0.652768
Spine -13.216494 5.579972 -0.869151
Head 4.137727 -13.791194 6.433663
LeftShoulder -11.584619 -7.815948 47.318343
LeftArm 97.244418 -71.989023 -81.580034
LeftForeArm -34.918048 -0.000000 111.575673
LeftHand -24.800281 0.000000 2.461128
LeftHandThumb1 -26.253704 0.000000 33.147579
RightShoulder -123.030212 34.907895 -204.781611
RightArm -18.070799 5.013083 56.318771
RightForeArm 38.778801 -0.000000 158.427711
RightHand 6.769400 -0.000000 28.818471
RightHandThumb1 -24.326973 -0.000000 -32.862282
LeftUpLeg -2.120247 4.064628 2.405621
LeftLeg -1.534789 -0.000000 0.000000
LeftFoot -7.102489 -0.632776 -10.996850
LeftToeBase 10.012642 -0.000000 -0.000000
RightUpLeg -2.008251 -9.520859 1.019842
RightLeg 0.962417 -0.000000 -0.000000
RightFoot -7.200747 -3.571477 1.006643
RightToeBase -0.637763 -0.000000 0.000000
